Coordinates
version=1
nRows=18
nColumns=22
inDegrees=yes

Units are S.I. units (second, meters, Newtons, ...)
If the header above contains a line with 'inDegrees', this indicates whether rotational values are in degrees (yes) or radians (no).

endheader
time	pelvis_tilt	pelvis_list	pelvis_rotation	pelvis_tx	pelvis_ty	pelvis_tz	hip_flexion_r	hip_adduction_r	hip_rotation_r	knee_angle_r	ankle_angle_r	subtalar_angle_r	hip_flexion_l	hip_adduction_l	hip_rotation_l	knee_angle_l	ankle_angle_l	subtalar_angle_l	lumbar_extension	lumbar_bending	lumbar_rotation
      0.01000000	      0.92741682	     -1.13686291	     -0.50122420	      0.86077718	      1.08099577	     -0.33718145	     -3.67386142	      1.69277518	     -1.95249992	     -8.47438236	     10.97925411	     -2.88944866	     -2.00098349	     -0.30755199	     -0.89879750	    -10.23243262	     12.86205400	     -0.43245445	     -1.11855308	     -1.43555506	     -4.89190939
      0.02000000	      0.93447780	     -1.14039072	     -0.49263085	      0.86079174	      1.08100130	     -0.33717895	     -3.67649106	      1.69859345	     -1.95017187	     -8.48661429	     10.97734601	     -2.88958792	     -2.00204352	     -0.31228431	     -0.89199440	    -10.24441212	     12.86953336	     -0.43165680	     -1.12469932	     -1.43919208	     -4.86912949
      0.03000000	      0.94607980	     -1.14159491	     -0.48248257	      0.86081499	      1.08101225	     -0.33717935	     -3.68126268	      1.70151073	     -1.95276349	     -8.50453781	     10.97967142	     -2.88991182	     -2.00743748	     -0.31466153	     -0.88678846	    -10.25827031	     12.87624505	     -0.43053710	     -1.13345369	     -1.44500432	     -4.84604877
      0.04000000	      0.96850621	     -1.13979660	     -0.47684060	      0.86083690	      1.08103542	     -0.33719060	     -3.69134198	      1.69900504	     -1.96406203	     -8.53410581	     10.98966957	     -2.89050195	     -2.02228543	     -0.31195902	     -0.88036734	    -10.27771863	     12.88649601	     -0.42761472	     -1.15453677	     -1.44917512	     -4.81809367
      0.05000000	      0.99567916	     -1.13606656	     -0.46555353	      0.86085311	      1.08106908	     -0.33719504	     -3.70539503	      1.69613008	     -1.97569378	     -8.56597229	     11.00334966	     -2.89054916	     -2.04355463	     -0.30863966	     -0.87538605	    -10.29103612	     12.89285337	     -0.42298227	     -1.18144240	     -1.46001066	     -4.79654148
      0.06000000	      1.02332359	     -1.13180247	     -0.45291896	      0.86086500	      1.08110495	     -0.33719947	     -3.71917227	      1.69272363	     -1.98584036	     -8.59805941	     11.01515761	     -2.89012809	     -2.06677041	     -0.30475152	     -0.86707313	    -10.30145088	     12.89456184	     -0.41787264	     -1.20862107	     -1.47040002	     -4.77971546
      0.07000000	      1.04999917	     -1.12740604	     -0.43954655	      0.86087197	      1.08114124	     -0.33719977	     -3.73062966	      1.68986372	     -1.99577629	     -8.63256619	     11.02583579	     -2.88963202	     -2.08963141	     -0.30093183	     -0.85703603	    -10.30983621	     12.89459073	     -0.41326630	     -1.23548698	     -1.48004150	     -4.76650391
      0.08000000	      1.07856770	     -1.12235080	     -0.42559492	      0.86086851	      1.08118081	     -0.33719987	     -3.74191811	      1.68567692	     -2.00881914	     -8.66979925	     11.03840152	     -2.88904488	     -2.11497054	     -0.29643784	     -0.84527868	    -10.31605011	     12.89376329	     -0.40863832	     -1.26478843	     -1.48969337	     -4.75627989
      0.09000000	      1.12063211	     -1.11165256	     -0.40531255	      0.86088324	      1.08123865	     -0.33719949	     -3.77214534	      1.67632888	     -2.04181548	     -8.70075388	     11.06452529	     -2.88637871	     -2.16256459	     -0.28673820	     -0.83216056	    -10.30709362	     12.89133668	     -0.40058541	     -1.30831754	     -1.50682750	     -4.75300752
      0.10000000	      1.13411241	     -1.11042781	     -0.38866158	      0.86084940	      1.08126337	     -0.33717465	     -3.77032353	      1.67951083	     -2.03430853	     -8.72927811	     11.06055006	     -2.88585411	     -2.16752616	     -0.28874916	     -0.82110679	    -10.31730214	     12.88812291	     -0.39945688	     -1.32445868	     -1.51473253	     -4.74792998
      0.11000000	      1.15754258	     -1.10697058	     -0.37625983	      0.86081046	      1.08129850	     -0.33716865	     -3.77015035	      1.67690992	     -2.04613576	     -8.77420891	     11.06730409	     -2.88601446	     -2.18312074	     -0.28529807	     -0.80230414	    -10.32943697	     12.88524392	     -0.39734337	     -1.35089920	     -1.51681888	     -4.74277892
      0.12000000	      1.17967235	     -1.10212674	     -0.35451722	      0.86076501	      1.08133383	     -0.33714244	     -3.77207668	      1.67622216	     -2.06422192	     -8.81277368	     11.07868539	     -2.88613160	     -2.19827551	     -0.28359777	     -0.78499755	    -10.33586171	     12.88256336	     -0.39523064	     -1.37822223	     -1.52728248	     -4.74083152
      0.13000000	      1.21225339	     -1.09074449	     -0.31846955	      0.86073767	      1.08138060	     -0.33713183	     -3.79184740	      1.66858062	     -2.11641980	     -8.84168067	     11.10397304	     -2.88506800	     -2.22983554	     -0.27562069	     -0.75362585	    -10.33096700	     12.87800541	     -0.39058045	     -1.41576300	     -1.54519681	     -4.75519671
      0.14000000	      1.22640879	     -1.08804369	     -0.29655048	      0.86067560	      1.08140787	     -0.33708818	     -3.79186436	      1.67196953	     -2.11608433	     -8.86636286	     11.10076112	     -2.88472364	     -2.23240490	     -0.27726977	     -0.73552687	    -10.34381003	     12.87309227	     -0.38911972	     -1.43440951	     -1.55300438	     -4.75115995
      0.15000000	      1.24566690	     -1.08403623	     -0.26517686	      0.86060313	      1.08144073	     -0.33705725	     -3.79470983	      1.67342259	     -2.14087562	     -8.89568463	     11.10625658	     -2.88591276	     -2.23887132	     -0.27788437	     -0.70539216	    -10.35695448	     12.86827200	     -0.38631149	     -1.46047275	     -1.56212082	     -4.74979730
      0.16000000	      1.26948867	     -1.07460668	     -0.21107582	      0.86055119	      1.08147955	     -0.33704207	     -3.81205055	      1.67165205	     -2.20685626	     -8.91023161	     11.11997557	     -2.88876375	     -2.25619314	     -0.27423971	     -0.65247606	    -10.35573111	     12.86504745	     -0.38028029	     -1.48984276	     -1.57971946	     -4.77965370
      0.17000000	      1.28030846	     -1.07153475	     -0.18123267	      0.86047180	      1.08150285	     -0.33699291	     -3.81513875	      1.67594793	     -2.21448080	     -8.92139149	     11.11781692	     -2.88944640	     -2.25214262	     -0.27721663	     -0.62866992	    -10.37097952	     12.85933841	     -0.37830606	     -1.50591015	     -1.58837287	     -4.76683580
      0.18000000	      1.29178761	     -1.06794611	     -0.14354955	      0.86038569	      1.08152659	     -0.33693908	     -3.81902333	      1.68121421	     -2.24162251	     -8.93168906	     11.11873644	     -2.89172294	     -2.24890662	     -0.28092863	     -0.59378844	    -10.38384243	     12.85400729	     -0.37511284	     -1.52404704	     -1.60071756	     -4.75997792
